<svg width="30" height="30" viewBox="0 0 30 30" fill="none" xmlns="http://www.w3.org/2000/svg">
<path fill-rule="evenodd" clip-rule="evenodd" d="M15 30C23.2843 30 30 23.2843 30 15C30 6.71573 23.2843 0 15 0C6.71573 0 0 6.71573 0 15C0 23.2843 6.71573 30 15 30ZM11.9034 19.233V20H17.4091V19.0625H13.3523V18.9943L15.3125 16.8977C15.8125 16.3608 16.2031 15.9062 16.4844 15.5341C16.7685 15.1591 16.9673 14.8196 17.081 14.5156C17.1974 14.2088 17.2557 13.8949 17.2557 13.5739C17.2557 13.125 17.1435 12.7173 16.919 12.3509C16.6946 11.9844 16.3849 11.6932 15.9901 11.4773C15.5952 11.2614 15.142 11.1534 14.6307 11.1534C14.1222 11.1534 13.6634 11.2614 13.2543 11.4773C12.848 11.6932 12.527 11.9943 12.2912 12.3807C12.0554 12.767 11.9375 13.2159 11.9375 13.7273H12.9432C12.9432 13.3949 13.0099 13.1051 13.1435 12.858C13.2798 12.6108 13.4716 12.419 13.7188 12.2827C13.9688 12.1435 14.2614 12.0739 14.5966 12.0739C14.9119 12.0739 15.196 12.1349 15.4489 12.2571C15.7017 12.3793 15.9006 12.5526 16.0455 12.777C16.1932 13.0014 16.267 13.267 16.267 13.5739C16.267 13.8409 16.2131 14.0966 16.1051 14.3409C16 14.5824 15.8381 14.8409 15.6193 15.1165C15.4006 15.3892 15.1222 15.7102 14.7841 16.0795L11.9034 19.233Z" fill="#D9D9D9"/>
</svg>
