<svg width="30" height="30" viewBox="0 0 30 30" fill="none" xmlns="http://www.w3.org/2000/svg">
<circle cx="15" cy="15" r="14.5" stroke="white"/>
<path d="M11.9034 20V19.233L14.7841 16.0795C15.1222 15.7102 15.4006 15.3892 15.6193 15.1165C15.8381 14.8409 16 14.5824 16.1051 14.3409C16.2131 14.0966 16.267 13.8409 16.267 13.5739C16.267 13.267 16.1932 13.0014 16.0455 12.777C15.9006 12.5526 15.7017 12.3793 15.4489 12.2571C15.196 12.1349 14.9119 12.0739 14.5966 12.0739C14.2614 12.0739 13.9688 12.1435 13.7188 12.2827C13.4716 12.419 13.2798 12.6108 13.1435 12.858C13.0099 13.1051 12.9432 13.3949 12.9432 13.7273H11.9375C11.9375 13.2159 12.0554 12.767 12.2912 12.3807C12.527 11.9943 12.848 11.6932 13.2543 11.4773C13.6634 11.2614 14.1222 11.1534 14.6307 11.1534C15.142 11.1534 15.5952 11.2614 15.9901 11.4773C16.3849 11.6932 16.6946 11.9844 16.919 12.3509C17.1435 12.7173 17.2557 13.125 17.2557 13.5739C17.2557 13.8949 17.1974 14.2088 17.081 14.5156C16.9673 14.8196 16.7685 15.1591 16.4844 15.5341C16.2031 15.9062 15.8125 16.3608 15.3125 16.8977L13.3523 18.9943V19.0625H17.4091V20H11.9034Z" fill="white"/>
</svg>
